<svg width="57" height="78" viewBox="0 0 57 78" fill="none" xmlns="http://www.w3.org/2000/svg">
<path d="M6.31503 0.425706C6.50675 0.391784 6.70208 0.38018 6.89741 0.374824C21.1482 0.375716 35.3998 0.377502 49.6506 0.373931C52.4383 0.233781 55.1972 2.01557 56.2071 4.59452C56.4978 5.2676 56.6293 5.9987 56.7013 6.72355C56.6851 11.7493 56.6977 16.776 56.6941 21.8018C56.6806 30.2813 56.7355 38.76 56.6941 47.2396C56.6941 53.7267 56.6941 60.2129 56.6941 66.7C56.6995 68.2746 56.6815 69.8511 56.7058 71.4267C56.6383 72.4104 56.3898 73.3852 55.9227 74.2592C54.7462 76.5033 52.2105 77.9861 49.656 77.862C35.7347 77.8576 21.8125 77.8611 7.89024 77.8602C7.38437 77.8549 6.8749 77.8897 6.37263 77.8201C5.3861 77.654 4.42477 77.3139 3.58135 76.7774C2.4958 76.0472 1.57227 75.0483 1.0619 73.8396C0.718056 73.1085 0.558734 72.3069 0.483124 71.5088C0.499326 67.1079 0.485824 62.7052 0.490325 58.3043C0.484924 53.5446 0.503826 48.7848 0.476822 44.025C0.469621 38.6413 0.484024 33.2575 0.490325 27.8738C0.490325 21.0868 0.490325 14.3006 0.490325 7.51358C0.403913 6.09957 0.789165 4.66236 1.55967 3.46974C2.61282 1.8415 4.39236 0.727432 6.31503 0.425706ZM6.49325 3.12963C4.86493 3.43493 3.48864 4.79983 3.242 6.43343C3.15739 7.11901 3.1961 7.81262 3.1871 8.50177C3.1862 13.8552 3.1871 19.2077 3.1862 24.5611C3.17719 30.2456 3.215 35.9293 3.2033 41.6139C3.17539 51.0174 3.1898 60.4209 3.1871 69.8243C3.1916 70.4501 3.16909 71.0785 3.2267 71.7025C3.43823 73.42 4.90543 74.8724 6.62287 75.126C7.07203 75.1849 7.52659 75.1893 7.97936 75.1867C21.871 75.1804 35.7626 75.184 49.6542 75.1858C50.7334 75.2179 51.846 74.8787 52.6381 74.1315C53.5517 73.3656 54.0414 72.1623 53.9937 70.9839C54.0027 63.2185 53.9955 55.4531 53.9973 47.6868C53.9496 38.9689 54.0126 30.251 53.9973 21.5322C53.9928 16.7144 54.0081 11.8957 53.9901 7.07706C54.0279 5.43631 52.8973 3.88394 51.3572 3.32245C50.6776 3.04215 49.9278 3.0484 49.205 3.04929C35.4322 3.05375 21.6603 3.05375 7.88844 3.0484C7.42218 3.04661 6.95411 3.05554 6.49325 3.12963Z" fill="#FF3399"/>
<path d="M8.0234 6.86462C8.85332 6.65306 9.72555 7.38148 9.66794 8.22596C9.73365 8.96242 9.09186 9.66495 8.34295 9.65335C7.61024 9.68995 6.94955 9.0374 6.96755 8.31165C6.89644 7.65464 7.36721 6.99495 8.0234 6.86462Z" fill="#FF3399"/>
<path d="M13.9384 7.00565C16.9926 6.98333 20.0476 7.00208 23.1017 6.99583C29.7356 6.96458 36.3695 7.0119 43.0034 6.99404C43.5804 6.95744 44.1655 7.31719 44.3518 7.86708C44.4833 8.30271 44.576 8.75262 44.5994 9.20789C44.6867 10.446 45.5112 11.5735 46.6174 12.1296C47.198 12.4447 47.8641 12.5278 48.5122 12.592C49.271 12.7197 49.6671 13.5177 49.6941 14.2158C49.6959 16.9813 49.6941 19.7469 49.695 22.5124C49.7049 24.6557 49.6716 26.799 49.7175 28.9414C49.7157 33.8494 49.7175 38.7582 49.7166 43.6662C49.7328 47.6868 49.6806 51.7056 49.695 55.7263C49.6941 58.4909 49.6959 61.2564 49.6941 64.021C49.6554 64.5888 49.4285 65.2181 48.8966 65.5056C48.514 65.726 48.0522 65.6528 47.6373 65.7582C46.4293 65.9787 45.3573 66.8196 44.873 67.9408C44.4625 68.7817 44.6876 69.7859 44.2348 70.6135C43.9801 71.0303 43.4841 71.2696 42.9971 71.2419C36.3641 71.2232 29.7311 71.2714 23.099 71.2401C20.1601 71.2419 17.2212 71.2365 14.2823 71.2419C13.8943 71.2642 13.4875 71.1714 13.1976 70.9045C12.7287 70.4894 12.6936 69.8145 12.6026 69.2396C12.5801 67.6033 11.2858 66.126 9.68624 65.7894C9.20828 65.6439 8.6628 65.7528 8.22894 65.4707C7.73567 65.169 7.52954 64.5665 7.49084 64.021C7.48994 59.5594 7.48904 55.0978 7.49084 50.6362C7.44493 48.3447 7.47824 46.0523 7.46834 43.7608C7.47464 38.6154 7.45573 33.47 7.47734 28.3255C7.50794 23.622 7.48094 18.9184 7.49084 14.2149C7.50524 13.4463 8.01831 12.5831 8.87253 12.5644C10.3046 12.5233 11.698 11.6708 12.2831 10.3577C12.7152 9.52211 12.5027 8.52409 12.9159 7.68051C13.1202 7.31005 13.5127 7.04671 13.9384 7.00565ZM17.4822 9.6694C19.8414 11.7958 22.1917 13.9319 24.55 16.0601C25.46 15.0755 26.3682 14.0873 27.2765 13.1C26.0073 11.9582 24.7462 10.8085 23.477 9.66851C21.4788 9.67208 19.4805 9.67029 17.4822 9.6694ZM27.4907 9.67565C28.0317 10.1514 28.5582 10.6433 29.0974 11.1218C29.5403 10.6388 29.9831 10.155 30.4314 9.67654C29.4512 9.68011 28.4709 9.681 27.4907 9.67565ZM34.0886 9.6694C33.0868 10.7549 32.0885 11.8422 31.0885 12.9277C32.0471 13.7936 33.0031 14.663 33.9626 15.5281C35.7628 13.5758 37.5568 11.619 39.3588 9.6694C37.6018 9.67119 35.8448 9.6694 34.0886 9.6694ZM35.4469 17.8865C35.2012 18.1463 34.9779 18.4435 34.6548 18.6131C34.1795 18.8622 33.5593 18.7881 33.1561 18.4364C31.8716 17.2465 30.5646 16.0797 29.2666 14.905C28.0704 16.2118 26.8669 17.5125 25.6688 18.8176C25.2584 19.3014 24.4888 19.4157 23.9523 19.0764C23.4888 18.7756 23.1116 18.3668 22.6957 18.0079C20.1124 15.6664 17.5227 13.333 14.9439 10.987C14.2058 13.0482 12.3443 14.655 10.1876 15.1058C10.1858 16.127 10.1867 17.1474 10.1867 18.1686C10.6728 18.0276 11.1768 18.0097 11.68 18.0168C12.6909 17.9169 13.7008 18.2034 14.6171 18.6069C15.0411 18.872 15.5262 19.0506 15.8836 19.4103C17.646 20.7011 18.6254 22.9444 18.4499 25.102C18.3733 25.5876 18.0619 26.0304 17.6703 26.3214C17.133 26.6892 16.331 26.5857 15.9142 26.084C15.4929 25.5689 14.9628 25.1377 14.3687 24.8324C13.5073 24.4307 12.509 24.2897 11.5774 24.5048C11.0967 24.578 10.6737 24.8539 10.1858 24.8976C10.1867 26.3 10.1777 27.7024 10.211 29.1048C10.4477 29.1896 10.689 29.286 10.8744 29.4619C11.6125 30.1278 12.3461 30.7982 13.0851 31.4624C13.3317 31.6739 13.5694 31.9248 13.6486 32.2488C13.8187 32.7987 13.5676 33.4343 13.0779 33.7369C12.59 34.0592 11.8906 34.0092 11.4586 33.6137C11.0382 33.237 10.6188 32.8594 10.2056 32.4756C10.2119 32.9255 10.2056 33.3754 10.211 33.8262C10.6368 34.0208 10.9482 34.3743 11.2939 34.6769C12.581 35.8383 13.8655 37.0041 15.1527 38.1664C15.3552 38.3529 15.5749 38.5243 15.7432 38.7448C16.0915 39.2081 16.0762 39.9026 15.7054 40.3499C14.0122 42.1558 12.3488 43.9911 10.6674 45.8086C10.5315 45.9514 10.3721 46.0684 10.2119 46.1826C10.2047 46.6834 10.211 47.1851 10.2074 47.6868C10.4982 47.3735 10.7889 47.0583 11.0769 46.7432C11.3443 46.4451 11.6242 46.1121 12.0374 46.022C12.6963 45.8318 13.447 46.2398 13.6558 46.8852C13.816 47.3378 13.7053 47.868 13.3741 48.2188C12.6008 49.0579 11.8285 49.8971 11.0562 50.7371C10.7754 51.0397 10.5072 51.3566 10.1894 51.6235C10.1831 52.1948 10.1876 52.767 10.1858 53.3383C10.4324 53.3705 10.6746 53.4321 10.9032 53.5312C12.3272 54.1016 14.0662 53.8436 15.2274 52.8358C15.727 52.4957 15.9916 51.8333 16.6388 51.7235C17.5308 51.5075 18.3139 52.3189 18.4499 53.1339C18.5984 54.9389 17.9377 56.7885 16.6928 58.1115C16.4318 58.4525 16.0438 58.6578 15.7378 58.9542C15.5154 59.164 15.2238 59.272 14.9655 59.43C14.303 59.8478 13.5298 60.045 12.7665 60.1914C12.2561 60.2977 11.7349 60.1914 11.2192 60.2138C10.8681 60.2298 10.5261 60.1423 10.1867 60.0674C10.1867 61.0877 10.1858 62.1089 10.1876 63.1301C12.3443 63.5809 14.2058 65.1878 14.9439 67.249C17.5983 64.8352 20.2636 62.433 22.9217 60.0236C23.2583 59.7272 23.5725 59.3996 23.9541 59.1595C24.4915 58.8185 25.2638 58.9363 25.6742 59.4228C26.8696 60.727 28.0713 62.0259 29.2666 63.331C30.3954 62.3151 31.5197 61.2939 32.6457 60.2745C32.9599 59.9933 33.2398 59.6344 33.6683 59.5255C34.1858 59.3711 34.7583 59.5719 35.1022 59.9754C37.4416 62.5151 39.7774 65.0574 42.1177 67.5971C42.7829 65.3806 44.7119 63.6015 46.9973 63.1301C46.9991 62.1089 46.9982 61.0877 46.9982 60.0674C46.5148 60.2066 46.0144 60.2262 45.5157 60.2182C44.5229 60.3209 43.5345 60.0424 42.629 59.6594C42.2698 59.4532 41.8945 59.2702 41.5515 59.0408C41.1969 58.7024 40.754 58.4596 40.4534 58.0678C39.2319 56.7519 38.5901 54.9211 38.7351 53.1375C38.8098 52.6501 39.123 52.2038 39.5173 51.9118C40.0564 51.545 40.8585 51.6521 41.2743 52.1564C41.6929 52.6679 42.2203 53.0946 42.809 53.4008C43.6713 53.8034 44.6705 53.9463 45.6048 53.732C46.0864 53.6579 46.5094 53.3821 46.9991 53.3383C46.9973 52.767 47.0009 52.1948 46.9955 51.6235C46.6607 51.3423 46.3798 51.0058 46.0837 50.688C45.3159 49.8506 44.5436 49.0187 43.7785 48.1804C43.3086 47.6654 43.3671 46.7941 43.8901 46.3362C44.3905 45.8523 45.27 45.8631 45.7524 46.3656C46.1701 46.7977 46.5643 47.2503 46.9775 47.6868C46.9739 47.1851 46.9793 46.6834 46.973 46.1826C46.423 45.8086 46.0405 45.2542 45.5769 44.7883C44.2123 43.3082 42.8576 41.8183 41.4804 40.3517C41.1213 39.9187 41.0934 39.2554 41.4084 38.7921C41.5912 38.5297 41.8522 38.3369 42.0844 38.12C43.5417 36.7997 45.0017 35.483 46.4581 34.1618C46.6102 34.0226 46.7912 33.9226 46.973 33.8262C46.9793 33.3754 46.973 32.9255 46.9793 32.4756C46.5481 32.8719 46.117 33.27 45.6759 33.6548C45.1412 34.1092 44.2582 34.0208 43.8136 33.4843C43.3437 32.9701 43.3869 32.1006 43.9108 31.6382C44.7083 30.9089 45.5121 30.1858 46.3123 29.4601C46.4968 29.2851 46.7372 29.1887 46.9739 29.1039C47.0072 27.6721 46.9982 26.2393 46.9982 24.8074C46.5508 24.7217 46.1485 24.4888 45.6984 24.4156C44.4067 24.1263 42.9791 24.4772 41.9908 25.3573C41.583 25.6403 41.3643 26.1393 40.8945 26.3384C40.367 26.5803 39.6928 26.4303 39.3219 25.9858C39.0906 25.7028 38.8647 25.385 38.8251 25.0128C38.6594 23.0408 39.4714 21.0261 40.9305 19.6835C41.3418 19.3996 41.6731 19.0059 42.1438 18.8104C42.7028 18.4507 43.332 18.2123 43.981 18.0659C44.3662 17.982 44.756 17.8803 45.1556 17.9079C45.7704 17.957 46.3996 17.8749 46.9982 18.0633C46.9982 17.0768 46.9991 16.0913 46.9973 15.1058C44.7119 14.6336 42.7829 12.8554 42.1177 10.6388C39.8926 13.0535 37.6702 15.4709 35.4469 17.8865ZM42.4157 22.0455C43.8865 21.5286 45.5157 21.5081 46.9991 21.9866C46.9982 21.6125 46.9973 21.2385 47 20.8645C46.4266 20.5815 45.774 20.6145 45.1529 20.5878C44.0782 20.6431 43.107 21.2555 42.4157 22.0455ZM10.1867 20.9895C10.1867 21.3626 10.1867 21.7348 10.1849 22.108C11.6917 21.5947 13.3597 21.6081 14.8611 22.1357C14.2616 21.4572 13.4704 20.9082 12.5666 20.7333C12.1247 20.6261 11.6692 20.7047 11.2219 20.7154C10.8591 20.727 10.5144 20.844 10.1867 20.9895ZM10.2074 37.3139C10.2092 38.9903 10.2101 40.6668 10.2074 42.3432C11.0427 41.4247 11.8897 40.5168 12.7269 39.5991C11.8888 38.8359 11.0436 38.0798 10.2074 37.3139ZM44.458 39.5991C45.2952 40.5159 46.1422 41.4247 46.9775 42.3432C46.9748 40.6668 46.9757 38.9903 46.9775 37.3139C46.1413 38.0798 45.2961 38.8359 44.458 39.5991ZM10.1849 56.128C10.1867 56.5002 10.1867 56.8725 10.1867 57.2456C10.7844 57.5554 11.4703 57.5375 12.1256 57.5589C13.1994 57.5018 14.1689 56.8885 14.8611 56.1003C13.3597 56.6279 11.6917 56.6413 10.1849 56.128ZM42.3239 56.1003C43.107 56.9974 44.2762 57.6759 45.5076 57.5438C46.0189 57.5393 46.5364 57.4786 46.9982 57.2456C46.9982 56.8734 46.9973 56.5002 47 56.128C45.4932 56.6413 43.8244 56.6288 42.3239 56.1003ZM17.4822 68.5665C19.4796 68.5665 21.4779 68.5639 23.4752 68.5683C24.7453 67.4266 26.01 66.2795 27.2756 65.1333C26.3655 64.1487 25.4609 63.1587 24.55 62.1759C22.1917 64.304 19.8414 66.4402 17.4822 68.5665ZM31.0885 65.3083C32.0894 66.3938 33.0868 67.4819 34.0895 68.5665C35.8457 68.5657 37.6018 68.5648 39.3588 68.5665C37.5568 66.6169 35.7628 64.6602 33.9635 62.7079C33.0031 63.5729 32.0471 64.4415 31.0885 65.3083ZM27.4907 68.5603C28.4709 68.5549 29.4512 68.5558 30.4314 68.5594C29.9831 68.0809 29.5403 67.5971 29.0974 67.1142C28.5582 67.5926 28.0317 68.0836 27.4907 68.5603Z" fill="#FF3399"/>
<path d="M47.8881 7.0296C48.6379 6.8091 49.4867 7.36614 49.5713 8.13741C49.7019 8.88548 49.0718 9.64426 48.3076 9.66032C47.5965 9.71924 46.9178 9.12293 46.8899 8.41593C46.8314 7.79373 47.2788 7.18135 47.8881 7.0296Z" fill="#FF3399"/>
<path d="M28.4411 18.712C29.1567 18.4398 30.0289 18.9084 30.1945 19.6484C30.3917 20.3385 29.9191 21.1187 29.2152 21.2758C28.5266 21.4704 27.7489 21.0098 27.5806 20.3224C27.3889 19.669 27.7894 18.9218 28.4411 18.712Z" fill="#FF3399"/>
<path d="M28.7281 26.4154C30.9658 26.1673 33.2683 26.577 35.2828 27.5732C35.6843 27.7803 36.1658 27.9223 36.408 28.3347C36.8229 28.9346 36.6123 29.8415 35.975 30.2031C35.6005 30.453 35.1298 30.4039 34.7076 30.3405C32.0649 30.0236 29.2808 31.3707 27.9666 33.6774C26.4598 35.9653 26.6299 39.1504 28.2447 41.3392C28.7407 41.9159 29.2214 42.5292 29.8776 42.9362C31.9451 44.4359 34.8642 44.6466 37.1389 43.4879C37.9625 43.0791 39.1929 43.5102 39.3388 44.4779C39.4693 45.0537 39.1038 45.5616 38.7186 45.9472C37.6906 47.0434 36.462 47.9558 35.0974 48.5976C31.7084 50.2116 27.5264 50.083 24.2545 48.2405C22.8656 47.4478 21.6054 46.4132 20.6396 45.1394C18.7322 42.6675 17.8618 39.4146 18.3614 36.3349C18.8204 32.998 20.861 29.9147 23.7477 28.1481C25.2446 27.1983 26.9648 26.6145 28.7281 26.4154ZM23.7774 31.4876C21.6495 33.447 20.5865 36.4643 21.014 39.3111C21.2382 40.942 21.9403 42.5015 22.988 43.7753C24.0051 44.9822 25.3409 45.9249 26.8234 46.4846C28.5958 47.1488 30.5554 47.1809 32.3916 46.7739C30.5563 46.5132 28.8424 45.6455 27.4445 44.452C26.7388 43.7146 25.998 42.9791 25.5147 42.0703C23.9376 39.3709 23.7864 35.8769 25.2077 33.0819C25.9962 31.4573 27.2375 30.0415 28.7974 29.1024C26.9279 29.3568 25.1474 30.2013 23.7774 31.4876Z" fill="#FF3399"/>
<path d="M28.4328 56.9976C29.1556 56.7128 30.0431 57.1975 30.1989 57.9501C30.3933 58.666 29.8676 59.4614 29.1313 59.5756C28.4463 59.7203 27.7136 59.2409 27.5705 58.5633C27.4049 57.9215 27.8 57.2056 28.4328 56.9976Z" fill="#FF3399"/>
<path d="M8.73842 69.169C9.50893 68.9601 10.3586 69.5663 10.3991 70.3572C10.4838 71.0758 9.87798 71.7765 9.14978 71.806C8.45759 71.8721 7.7852 71.3222 7.71679 70.6384C7.61777 69.9823 8.08854 69.3119 8.73842 69.169Z" fill="#FF3399"/>
<path d="M48.1635 69.3536C48.907 69.1376 49.7459 69.6857 49.8395 70.4472C49.979 71.1988 49.3498 71.9674 48.5802 71.9853C47.8628 72.046 47.1796 71.4416 47.1589 70.7293C47.1067 70.1088 47.5559 69.5009 48.1635 69.3536Z" fill="#FF3399"/>
</svg>
